# xmcd
#
# Track frame offsets: 
#        150
#        18620
#        33393
#        52280
#        72230
#        87831
#        110256
#        121132
#        140033
#        155934
#        174835
#        194785
#        217118
#        232569
#        251164
#        267142
#        284472
#        302269
#        314899
#
# Disc length: 4322 seconds
#
# Revision: 0
# Processed by: cddbd v1.5.2PL0 Copyright (c) Steve Scherf et al.
# Submitted via: ExactAudioCopy v0.99pb4
#
DISCID=1f10e013
DTITLE=Morbid Angel - Altars of Madness and Entangled in Chaos: Vol.I
DYEAR=1989
DGENRE=Death Metal
TTITLE0=Immortal Rites
TTITLE1=Suffocation
TTITLE2=Visions From the Dark Side
TTITLE3=Maze of Torment
TTITLE4=Lord of All Fevers and Plague
TTITLE5=Chapel of Ghouls
TTITLE6=Bleed for the Devil
TTITLE7=Damnation
TTITLE8=Blasphemy
TTITLE9=Evil Spells
TTITLE10=Maze of Torment (Remix)
TTITLE11=Chapel of Ghouls (Remix)
TTITLE12=Blasphemy (Remix)
TTITLE13=Immortal Rites
TTITLE14=Blasphemy of the Holy Ghost
TTITLE15=Sworn to the Black
TTITLE16=Lord of All Fevers and Plague
TTITLE17=Blessed Are the Sick
TTITLE18=Day of Suffering
EXTD=
EXTT0=
EXTT1=
EXTT2=
EXTT3=
EXTT4=
EXTT5=
EXTT6=
EXTT7=
EXTT8=
EXTT9=
EXTT10=
EXTT11=
EXTT12=
EXTT13=
EXTT14=
EXTT15=
EXTT16=
EXTT17=
EXTT18=
PLAYORDER=
